<?xml version="1.0" encoding="utf-8"?>
<!-- Generator: Adobe Illustrator 16.0.3, SVG Export Plug-In . SVG Version: 6.00 Build 0)  -->
<!DOCTYPE svg PUBLIC "-//W3C//DTD SVG 1.1//EN" "http://www.w3.org/Graphics/SVG/1.1/DTD/svg11.dtd">
<svg version="1.1" id="レイヤー_1" xmlns="http://www.w3.org/2000/svg" xmlns:xlink="http://www.w3.org/1999/xlink" x="0px"
	 y="0px" width="146.81px" height="152.18px" viewBox="0 0 146.81 152.18" enable-background="new 0 0 146.81 152.18"
	 xml:space="preserve">
<g>
	<path fill="#FFFFFF" stroke="#231815" stroke-width="0.616" d="M57.769,4.077c0,0-15.002,8.751-19.467,10.538
		s-10.359,3.572-13.038,7.144c-2.679,3.572-10.895,13.931-13.574,17.324S0.26,51.763,0.26,51.763s4.287,4.107,6.251,7.144
		c1.965,3.036,12.681,10.895,17.324,14.109c0.893-3.214,3.037-7.858,3.037-7.858s1.786,6.965,1.964,11.073
		c0.178,4.109,0.178,24.29,0.536,31.613c0.357,7.322,1.25,13.037,1.786,22.324s0.178,22.504,0.178,22.504s17.86,0.535,23.575,0.18
		c5.715-0.357,16.788-1.787,27.147-1.252c10.359,0.537,23.219,1.787,27.146,1.609c3.93-0.18,12.146-0.895,12.146-0.895
		s-0.714-16.967-0.357-24.468c0.357-7.501,1.25-18.039,1.429-24.468c0.179-6.43-0.179-25.361-0.536-29.291
		c-0.356-3.929-0.535-11.43-0.535-11.43s4.286,6.608,5.358,9.645c5.18-2.857,8.93-6.965,11.608-9.466s8.751-6.787,8.751-6.787
		s-7.5-9.644-10.001-13.395c-2.501-3.751-10.002-13.038-11.788-16.61c-1.785-3.572-3.928-4.287-8.394-7.144
		S94.025,4.434,94.025,4.434l-6.965,1.607L69.557,6.756L57.769,4.077z"/>
	<path fill="#FFFFFF" stroke="#231815" stroke-width="0.616" d="M87.596,7.828c0,0-1.43,3.75-3.215,5.894
		c-1.786,2.143-6.43,3.572-11.609,3.215c-5.18-0.357-9.645-6.43-10.717-9.645C72.95,9.614,81.166,9.614,87.596,7.828z M60.984,1.041
		L56.34,4.435c0,0,0,4.108,3.572,9.108c3.572,5.001,9.287,8.751,14.824,8.395c5.536-0.357,12.859-4.287,14.467-6.787
		s4.822-10.716,4.822-10.716l-3.93-3.214c-5.715,2.679-12.859,2.5-16.431,2.5C70.092,3.72,64.734,3.363,60.984,1.041z"/>
	<path fill="none" stroke="#231815" stroke-width="0.616" d="M26.872,65.158c1.964-4.643,5.358-12.681,5.179-17.681
		c-0.178-5.001-1.965-25.897-2.5-29.112"/>
	<path fill="none" stroke="#231815" stroke-width="0.616" d="M121.351,62.658c-2.321-4.465-4.286-13.752-4.823-21.253
		c-0.535-7.501,0-16.967,1.25-21.968"/>
	<path fill="none" stroke="#231815" stroke-width="0.616" d="M39.731,14.079c0,0,14.645-6.073,16.788-6.966"/>
	<path fill="none" stroke="#231815" stroke-width="0.616" d="M93.132,7.292c0,0,14.823,6.787,19.288,8.751"/>
	<path fill="none" stroke="#231815" stroke-width="0.616" d="M62.055,7.292c-0.714-2.143-0.893-3.393-1.071-6.251"/>
	<path fill="none" stroke="#231815" stroke-width="0.616" d="M87.596,7.828c0.715-2.144,1.785-3.93,2.5-6.608"/>
	<path fill="none" stroke="#231815" stroke-width="0.308" stroke-dasharray="1.8481,1.2321" d="M1.867,49.799
		c3.036,2.5,7.323,9.288,9.109,10.895c1.786,1.607,10.538,7.501,13.573,8.93"/>
	<path fill="none" stroke="#231815" stroke-width="0.308" stroke-dasharray="1.8481,1.2321" d="M2.761,49.084
		c3.036,2.5,7.322,9.287,9.108,10.895s10.538,7.501,13.574,8.93"/>
	<path fill="none" stroke="#231815" stroke-width="0.308" stroke-dasharray="1.8481,1.2321" d="M125.458,69.266
		c4.823-2.857,9.646-6.787,11.431-8.751c1.785-1.965,5.179-5.001,8.394-6.608"/>
	<path fill="none" stroke="#231815" stroke-width="0.308" stroke-dasharray="1.8481,1.2321" d="M124.922,68.373
		c4.822-2.857,9.645-6.787,11.431-8.751s5.179-5.001,8.395-6.608"/>
	<path fill="none" stroke="#231815" stroke-width="0.308" stroke-dasharray="1.8481,1.2321" d="M31.462,148.969
		c10.913,0.42,25.324,0.7,30.081,0.141c4.757-0.561,18.468-2.1,22.666-1.68s15.252,0.98,19.029,1.68s13.012,0.141,17.908-1.119"/>
	<path fill="none" stroke="#231815" stroke-width="0.308" stroke-dasharray="1.8481,1.2321" d="M31.462,147.709
		c10.913,0.42,25.324,0.701,30.081,0.141c4.757-0.561,18.468-2.1,22.666-1.68s15.252,0.98,19.029,1.68s13.012,0.141,17.908-1.119"/>
	<line fill="none" stroke="#231815" stroke-width="0.308" x1="57.379" y1="5.184" x2="60.15" y2="3.871"/>
	<line fill="none" stroke="#231815" stroke-width="0.308" x1="57.816" y1="6.933" x2="60.223" y2="5.694"/>
	<line fill="none" stroke="#231815" stroke-width="0.308" x1="60.587" y1="6.715" x2="58.254" y2="8.392"/>
	<line fill="none" stroke="#231815" stroke-width="0.308" x1="61.316" y1="8.392" x2="58.764" y2="9.777"/>
	<line fill="none" stroke="#231815" stroke-width="0.308" x1="61.899" y1="9.339" x2="59.712" y2="11.089"/>
	<line fill="none" stroke="#231815" stroke-width="0.308" x1="62.556" y1="10.652" x2="60.806" y2="12.329"/>
	<line fill="none" stroke="#231815" stroke-width="0.308" x1="63.139" y1="11.818" x2="61.462" y2="13.642"/>
	<line fill="none" stroke="#231815" stroke-width="0.308" x1="63.941" y1="12.621" x2="62.191" y2="14.589"/>
	<line fill="none" stroke="#231815" stroke-width="0.308" x1="64.597" y1="13.714" x2="63.212" y2="15.392"/>
	<line fill="none" stroke="#231815" stroke-width="0.308" x1="65.618" y1="14.589" x2="64.087" y2="16.412"/>
	<line fill="none" stroke="#231815" stroke-width="0.308" x1="66.566" y1="15.464" x2="65.035" y2="17.214"/>
	<line fill="none" stroke="#231815" stroke-width="0.308" x1="67.733" y1="16.412" x2="66.274" y2="18.381"/>
	<line fill="none" stroke="#231815" stroke-width="0.308" x1="68.681" y1="16.777" x2="67.587" y2="19.11"/>
	<line fill="none" stroke="#231815" stroke-width="0.308" x1="69.993" y1="17.214" x2="69.118" y2="19.839"/>
	<line fill="none" stroke="#231815" stroke-width="0.308" x1="71.087" y1="17.579" x2="70.577" y2="20.641"/>
	<line fill="none" stroke="#231815" stroke-width="0.308" x1="72.764" y1="18.089" x2="72.472" y2="20.641"/>
	<line fill="none" stroke="#231815" stroke-width="0.308" x1="74.587" y1="18.089" x2="74.66" y2="20.86"/>
	<line fill="none" stroke="#231815" stroke-width="0.308" x1="75.899" y1="17.943" x2="76.337" y2="20.422"/>
	<line fill="none" stroke="#231815" stroke-width="0.308" x1="77.504" y1="17.797" x2="77.941" y2="20.058"/>
	<line fill="none" stroke="#231815" stroke-width="0.308" x1="78.963" y1="17.506" x2="79.618" y2="19.693"/>
	<line fill="none" stroke="#231815" stroke-width="0.308" x1="80.566" y1="17.069" x2="81.368" y2="19.11"/>
	<line fill="none" stroke="#231815" stroke-width="0.308" x1="82.17" y1="16.485" x2="83.264" y2="18.162"/>
	<line fill="none" stroke="#231815" stroke-width="0.308" x1="83.629" y1="15.683" x2="85.086" y2="17.142"/>
	<line fill="none" stroke="#231815" stroke-width="0.308" x1="85.014" y1="14.516" x2="86.69" y2="15.902"/>
	<line fill="none" stroke="#231815" stroke-width="0.308" x1="85.961" y1="13.35" x2="88.222" y2="14.444"/>
	<line fill="none" stroke="#231815" stroke-width="0.308" x1="86.982" y1="11.818" x2="88.951" y2="13.131"/>
	<line fill="none" stroke="#231815" stroke-width="0.308" x1="87.565" y1="10.287" x2="89.753" y2="11.527"/>
	<line fill="none" stroke="#231815" stroke-width="0.308" x1="88.367" y1="8.684" x2="90.482" y2="10.069"/>
	<line fill="none" stroke="#231815" stroke-width="0.308" x1="88.951" y1="7.006" x2="90.773" y2="8.173"/>
	<line fill="none" stroke="#231815" stroke-width="0.308" x1="89.461" y1="5.621" x2="91.795" y2="7.079"/>
	<line fill="none" stroke="#231815" stroke-width="0.308" x1="90.191" y1="4.017" x2="92.378" y2="5.548"/>
	<line fill="none" stroke="#231815" stroke-width="0.308" x1="62.556" y1="2.996" x2="62.264" y2="4.381"/>
	<line fill="none" stroke="#231815" stroke-width="0.308" x1="63.795" y1="3.506" x2="63.212" y2="6.569"/>
	<line fill="none" stroke="#231815" stroke-width="0.308" x1="65.254" y1="3.871" x2="64.889" y2="6.715"/>
	<line fill="none" stroke="#231815" stroke-width="0.308" x1="66.857" y1="4.235" x2="66.42" y2="7.006"/>
	<line fill="none" stroke="#231815" stroke-width="0.308" x1="68.243" y1="4.673" x2="68.024" y2="7.517"/>
	<line fill="none" stroke="#231815" stroke-width="0.308" x1="69.774" y1="4.819" x2="69.483" y2="7.517"/>
	<line fill="none" stroke="#231815" stroke-width="0.308" x1="71.306" y1="5.11" x2="71.306" y2="7.735"/>
	<line fill="none" stroke="#231815" stroke-width="0.308" x1="73.128" y1="5.038" x2="73.056" y2="7.881"/>
	<line fill="none" stroke="#231815" stroke-width="0.308" x1="74.514" y1="5.184" x2="74.732" y2="7.808"/>
	<line fill="none" stroke="#231815" stroke-width="0.308" x1="76.264" y1="5.184" x2="76.556" y2="7.663"/>
	<line fill="none" stroke="#231815" stroke-width="0.308" x1="77.795" y1="5.184" x2="78.305" y2="7.881"/>
	<line fill="none" stroke="#231815" stroke-width="0.308" x1="79.691" y1="5.038" x2="80.348" y2="7.808"/>
	<line fill="none" stroke="#231815" stroke-width="0.308" x1="81.586" y1="4.673" x2="82.973" y2="7.881"/>
	<line fill="none" stroke="#231815" stroke-width="0.308" x1="83.773" y1="4.527" x2="84.649" y2="7.006"/>
	<line fill="none" stroke="#231815" stroke-width="0.308" x1="85.67" y1="4.017" x2="86.617" y2="6.715"/>
	<line fill="none" stroke="#231815" stroke-width="0.308" x1="87.273" y1="3.434" x2="87.711" y2="4.746"/>
</g>
</svg>
